<svg id="Layer_1" data-name="Layer 1" xmlns="http://www.w3.org/2000/svg" viewBox="0 0 105 110"><defs><style>.cls-1{fill:#00727d;}</style></defs><title>nmb-Anytime 105x110</title><path class="cls-1" d="M57.39,53l14.18-8.22a2.08,2.08,0,0,0-2.08-3.61L55.32,49.38a5.66,5.66,0,0,0-3.57-1.26,4.87,4.87,0,0,0-.66,0L40.2,27.59a2.09,2.09,0,0,0-3.69,1.95l10.9,20.58a5.7,5.7,0,1,0,10,3.7A7.22,7.22,0,0,0,57.39,53Z"/><path class="cls-1" d="M51.75,92.83a39,39,0,1,1,0-78h0a39.05,39.05,0,0,1,39,39,2.09,2.09,0,1,0,4.17,0A43.14,43.14,0,0,0,51.75,10.63h0a43.2,43.2,0,0,0-16.8,83A42.93,42.93,0,0,0,51.75,97a2.09,2.09,0,0,0,0-4.17Z"/><path class="cls-1" d="M65,84.74h0c5.54-5.35,9.47-9.54,9.47-14.91,0-4.2-2.74-8.44-8.86-8.44a12.42,12.42,0,0,0-8,2.88l-.35.29,1.68,3.73.62-.52a8.75,8.75,0,0,1,5.33-2.13c3.91,0,4.73,2.53,4.73,4.64,0,3.73-2.93,7.08-9.84,13.66l-3.05,3V90H75.12V85.75H63.88Z"/><path class="cls-1" d="M93.9,78.57V61.83H89L76.71,79.45v3.21H89.23V90H93.9V82.66h3.77V78.57Zm-11.75,0L88.1,70.3l0,0c.41-.68.77-1.3,1.12-1.93,0,.63,0,1.25,0,1.86v8.38Z"/></svg>