<svg id="Layer_1" data-name="Layer 1" xmlns="http://www.w3.org/2000/svg" viewBox="0 0 105 110"><defs><style>.cls-1,.cls-2,.cls-3,.cls-4{fill:none;stroke:#00727d;stroke-width:3.48px;}.cls-1,.cls-2{stroke-miterlimit:10;}.cls-2,.cls-4{stroke-linecap:round;}.cls-3,.cls-4{stroke-linejoin:round;}</style></defs><title>ABT-CommercialBanking-105x110</title><line class="cls-1" x1="46.68" y1="43.52" x2="67.04" y2="43.52"/><line class="cls-1" x1="46.68" y1="53.44" x2="67.04" y2="53.44"/><line class="cls-1" x1="46.68" y1="63.35" x2="67.04" y2="63.35"/><line class="cls-1" x1="46.68" y1="83.17" x2="67.04" y2="83.17"/><line class="cls-1" x1="46.68" y1="93.08" x2="67.04" y2="93.08"/><line class="cls-1" x1="46.68" y1="73.26" x2="67.04" y2="73.26"/><line class="cls-1" x1="46.68" y1="102.99" x2="67.04" y2="102.99"/><line class="cls-2" x1="56.86" y1="9.2" x2="56.86" y2="17.31"/><polyline class="cls-3" points="39.37 104.86 39.37 33.49 74.36 33.49 74.36 104.86"/><polyline class="cls-3" points="45.62 33.24 45.62 24.98 68.1 24.98 68.1 33.24"/><polyline class="cls-4" points="50.49 17.57 63.23 17.57 63.23 24.79"/><polyline class="cls-3" points="12.88 104.86 12.88 62.76 32.28 62.76"/><line class="cls-1" x1="30.5" y1="84.43" x2="30.5" y2="91.23"/><line class="cls-1" x1="22.35" y1="84.43" x2="22.35" y2="91.23"/><line class="cls-1" x1="30.5" y1="70.87" x2="30.5" y2="77.67"/><line class="cls-1" x1="22.35" y1="70.87" x2="22.35" y2="77.67"/><line class="cls-1" x1="30.5" y1="97.99" x2="30.5" y2="104.79"/><line class="cls-1" x1="22.35" y1="97.99" x2="22.35" y2="104.79"/><polyline class="cls-3" points="92.53 104.86 92.53 76.45 81.86 76.45"/><line class="cls-1" x1="83.64" y1="84.43" x2="83.64" y2="91.23"/><line class="cls-1" x1="83.64" y1="97.99" x2="83.64" y2="104.79"/></svg>