<svg id="Layer_1" data-name="Layer 1" xmlns="http://www.w3.org/2000/svg" viewBox="0 0 105 110"><defs><style>.cls-1{fill:#00727d;}</style></defs><title>ABT-CashRewardChecking-105x110</title><g id="salary"><path class="cls-1" d="M55.3,59.08l-11,8a6.94,6.94,0,0,0-7.67-.24L26.42,60.08a7,7,0,0,0,.18-6.81l8.93-6.67-2.87-1.81-9.18,6.86a1.57,1.57,0,0,0-.63,1.12A1.54,1.54,0,0,0,23.26,54,3.74,3.74,0,0,1,23,59.27a1.59,1.59,0,0,0,.19,2.49L35.78,70.1A1.6,1.6,0,0,0,37.73,70a3.71,3.71,0,0,1,2.53-1A3.65,3.65,0,0,1,43,70.18a1.59,1.59,0,0,0,2.1.21L58.18,60.9Z"/><path class="cls-1" d="M82.3,37.82a3.71,3.71,0,0,1,1.21-2.59,1.58,1.58,0,0,0-.24-2.52L69.63,24.37a1.57,1.57,0,0,0-1.89.19,3.75,3.75,0,0,1-5.29-.23,1.57,1.57,0,0,0-2.11-.2L47.62,33.62l2.87,1.81,10.72-8a6.89,6.89,0,0,0,7.69.21l11.18,6.84a6.95,6.95,0,0,0-.15,6.73l-9.44,6.85,2.88,1.82,9.67-7a1.57,1.57,0,0,0,.65-1.12,1.55,1.55,0,0,0-.41-1.23A3.76,3.76,0,0,1,82.3,37.82Z"/><path class="cls-1" d="M65.13,38.54a2.56,2.56,0,0,1-2.11-1,2.88,2.88,0,0,1,.88-4,3.39,3.39,0,0,1,1.95-.66,2.59,2.59,0,0,1,2.12,1,2.87,2.87,0,0,1-.88,4A3.36,3.36,0,0,1,65.13,38.54Zm.15-3.14a.69.69,0,0,0,.13.35.72.72,0,0,0,.3.24.78.78,0,0,0-.14-.36A.73.73,0,0,0,65.28,35.4Z"/><path class="cls-1" d="M38.69,61a2.56,2.56,0,0,1-2.11-1,2.87,2.87,0,0,1,.88-4,3.4,3.4,0,0,1,2-.66,2.59,2.59,0,0,1,2.11,1,2.86,2.86,0,0,1-.88,4A3.33,3.33,0,0,1,38.69,61Zm.15-3.13a.66.66,0,0,0,.14.35.56.56,0,0,0,.29.23.76.76,0,0,0-.13-.35A.69.69,0,0,0,38.84,57.84Z"/><path class="cls-1" d="M62.58,82.45a1.51,1.51,0,0,1-.72-.18A1.58,1.58,0,0,1,61,80.86V64.55l-33.33-21a1.58,1.58,0,0,1-.09-2.62l15.16-11a1.59,1.59,0,0,1,1.77-.06L78.88,51.49a1.58,1.58,0,0,1,.74,1.34V69.64A1.6,1.6,0,0,1,79,70.93L63.51,82.14A1.6,1.6,0,0,1,62.58,82.45ZM31.32,42.07l32.1,20.27a1.58,1.58,0,0,1,.74,1.34V77.76l12.29-8.92V53.7L43.72,33Z"/><path class="cls-1" d="M100.14,37.64v0s0,0,0-.08a2.34,2.34,0,0,0,0-.26s0-.07,0-.11L100,37l-.06-.1a1.77,1.77,0,0,0-.16-.22l0-.06a1.94,1.94,0,0,0-.27-.23h0L65,14.63a1.55,1.55,0,0,0-1.77.06L5.51,56.58s0,0,0,.05a1.07,1.07,0,0,0-.19.18l-.07.09a1.43,1.43,0,0,0-.14.2.31.31,0,0,1,0,.1,1.42,1.42,0,0,0-.1.29v0a1.24,1.24,0,0,0,0,.33v16.8a1.36,1.36,0,0,0,0,.2s0,.08,0,.12a.88.88,0,0,0,0,.15.57.57,0,0,0,0,.14,1,1,0,0,0,.08.14.75.75,0,0,0,.07.12l.09.12.11.12.09.08.15.12h0L40,97.68a1.5,1.5,0,0,0,.84.25,1.59,1.59,0,0,0,.93-.3l21-15.2-.12,0a1.51,1.51,0,0,1-.72-.18A1.58,1.58,0,0,1,61,80.86V79.75L40.76,94.43,8,73.77V69.59L40,89.76a1.59,1.59,0,0,0,1.77-.06L61,75.74V71.82L40.76,86.51,8,65.84v-5.1L40,80.91a1.59,1.59,0,0,0,1.77-.06L61,66.89V64.55l-1.16-.73L40.76,77.66,9.27,57.77,28.34,43.93l-.68-.43a1.58,1.58,0,0,1-.09-2.62l15.16-11a1.59,1.59,0,0,1,1.77-.06l1.79,1.13,17.95-13L95.73,37.76l-18,13,1.1.7a1.58,1.58,0,0,1,.74,1.34v.54L97,40.78v4.94L79.62,58.31v3.91L97,49.63v4L79.62,66.23v3.41a1.54,1.54,0,0,1-.13.6l20-14.51.08-.07.13-.12.1-.12.09-.12.07-.13c0-.05.05-.09.07-.14a2034955898301.44,2034955898301.44,0,0,1,.08-.3c0-.06,0-.11,0-.17s0-.07,0-.11V37.64Z"/></g></svg>