<svg id="Layer_1" data-name="Layer 1" xmlns="http://www.w3.org/2000/svg" viewBox="0 0 105 110"><defs><style>.cls-1{fill:#00727d;}</style></defs><title>ABT-Platinum-105x110</title><path class="cls-1" d="M96.42,78.22,60.26,57.49c-1.28,1-2.5,2-3.69,2.82L91.89,80.56l-29.19,17L11.54,68.2l25.82-15a35.17,35.17,0,0,1,3.46-6.28,3.82,3.82,0,0,0-2,.47L7,65.88a2.63,2.63,0,0,0,0,4.66l53.8,30.84a4,4,0,0,0,3.78,0L96.44,82.87a2.68,2.68,0,0,0,1.4-2.32A2.71,2.71,0,0,0,96.42,78.22Z"/><path class="cls-1" d="M72.21,77.48a3.08,3.08,0,0,0-1.36-1.41,8,8,0,0,0-2.24-.81,9.09,9.09,0,0,0-2.37-.12c-.28,0-.55.06-.81.09a3.48,3.48,0,0,0-1.08-1,7.36,7.36,0,0,0-3-.73,3.36,3.36,0,0,0-.56-.41,5.52,5.52,0,0,0-1.1-.47,1.41,1.41,0,0,0-.23-.67,2.56,2.56,0,0,0-.67-.61c-1.55-.89-4.8-2.79-6.83-3.83a2.76,2.76,0,0,0-2.49.08c-.63.41-.58,1,.08,1.41L56,72.54l-.5.26a2.94,2.94,0,0,0-.45.37c-.26.35-.16.78.31,1.08a2.06,2.06,0,0,0,1.33.34,2.78,2.78,0,0,0,1.18-.25l.22,0a.68.68,0,0,0,.11,1.05,1.13,1.13,0,0,0,.21.15,2.81,2.81,0,0,0,2.18.15l.26-.1a1.54,1.54,0,0,1,.62-.12,1,1,0,0,1,.43.12.45.45,0,0,1,.18.18l-1.5,1c-.54.41-.39,1,.24,1.41a2.85,2.85,0,0,0,2.48-.08,9,9,0,0,1,2.2-.81,8.57,8.57,0,0,1,1.25-.21,2.49,2.49,0,0,1,.74,0,3.38,3.38,0,0,1,.92.32.85.85,0,0,1,.4.42.83.83,0,0,1,0,.76,1.41,1.41,0,0,1-.59.52,13.48,13.48,0,0,1-1.73.76A17.9,17.9,0,0,0,64.15,81a5.35,5.35,0,0,0-.56.36c-.55.39-.51,1,.13,1.36a2.74,2.74,0,0,0,2.23.13,24.14,24.14,0,0,1,3.58-1.1,18.38,18.38,0,0,1,4.39-.41c1.49,0,3.21.17,5.35.3,1,.06,1.83-.35,1.93-.91a.82.82,0,0,0-.51-.83,2.46,2.46,0,0,0-1.06-.3c-2.72-.16-5-.4-7.48-.31A2.1,2.1,0,0,0,72.21,77.48Z"/><path class="cls-1" d="M62.88,49.84A238.69,238.69,0,0,0,92.42,21,2.14,2.14,0,0,0,92,18.25c-3.25-3.24-4.86-4.86-8.1-8.1a2.35,2.35,0,0,0-1.65-.77,2,2,0,0,0-1.08.32A237.3,237.3,0,0,0,52.25,39.21Z"/><path class="cls-1" d="M40.56,58.15c-.76,1.11-2.14,3.42-1.08,4.48a1.41,1.41,0,0,0,1,.39,7.21,7.21,0,0,0,3.41-1.45,1.44,1.44,0,0,0,.34,0c1.16,0,5.49-.69,15.26-9.06l-10-10C39.76,54,40.56,58.15,40.56,58.15Z"/><path class="cls-1" d="M62.87,23.47A119.38,119.38,0,0,1,77.13,9.2a2.32,2.32,0,0,0,.68-2.27,2.58,2.58,0,0,0-.42-.8,2.17,2.17,0,0,0-3.07-.26A123,123,0,0,0,59.53,20.66a2.14,2.14,0,0,0,.26,3.07A2.23,2.23,0,0,0,62.87,23.47Z"/><path class="cls-1" d="M95.64,13.39c.46-.46.29-1.37-.37-2L90.75,6.83c-.67-.66-1.58-.83-2-.37l-1.8,1.8,6.93,6.93Z"/><polygon class="cls-1" points="23.02 67.9 36.16 75.59 40.68 72.96 27.54 65.28 23.02 67.9"/></svg>