<svg id="Layer_1" data-name="Layer 1" xmlns="http://www.w3.org/2000/svg" viewBox="0 0 105 110"><defs><style>.cls-1{fill:#00727d;}.cls-2,.cls-3{fill:#fff;}.cls-2,.cls-4{stroke:#00727d;stroke-miterlimit:10;}.cls-2{stroke-width:3px;}.cls-4{fill:none;stroke-linecap:round;stroke-width:4px;}</style></defs><title>ABT-MobileDeposit-105x110</title><path class="cls-1" d="M91.14,9,52.08,9a9.47,9.47,0,0,0-9.45,9.47v15a28.17,28.17,0,0,1,4.5,0V18.83h49V93.46h-49V80a27,27,0,0,1-4.5,0V93.87a9.48,9.48,0,0,0,9.45,9.49l39.06,0a9.47,9.47,0,0,0,9.45-9.47V18.46A9.48,9.48,0,0,0,91.14,9Zm-12,90.27a1.36,1.36,0,0,1-1.35,1.36H65.44a1.35,1.35,0,0,1-1.35-1.36V97.49a1.35,1.35,0,0,1,1.35-1.35H77.78a1.36,1.36,0,0,1,1.35,1.35Z"/><rect class="cls-2" x="4.98" y="40.81" width="83.76" height="33.63"/><path class="cls-1" d="M53.93,70.26A1.3,1.3,0,0,1,52.62,69c0-2.29-.42-5.56.32-7.89,1.26-4,6.56-5.43,10.21-4.62A5.4,5.4,0,0,1,67.44,60c.06.29.11.53.14.78l.07,0a3,3,0,0,1,.59.16,1.15,1.15,0,0,1,.52.25,5.35,5.35,0,0,1,2,3.1l.11.45.07.37.54-.12a11.8,11.8,0,0,1,1.17-.17c1.67-.16,3.49-.12,4.49-.12a1.31,1.31,0,1,1,0,2.62,37.13,37.13,0,0,0-4.21.12,8.55,8.55,0,0,0-1.87.37c-.25.12-.41.2-.52.24l0,.08a2.56,2.56,0,0,1-.3.37A1.31,1.31,0,0,1,68.13,67s0-.08.07-.12l.19-.25a3,3,0,0,0-.11-1.59,3.61,3.61,0,0,0-.8-1.56l-.26-.08-.32.82a14.23,14.23,0,0,1-1.82,2.86,5.79,5.79,0,0,1-3.64,2.49,4.66,4.66,0,0,1-3-.49,2.79,2.79,0,0,1-1.34-2.29,4.84,4.84,0,0,1,2.74-4.16,15.68,15.68,0,0,1,4.8-1.8l.25,0,0-.08A2.69,2.69,0,0,0,62.58,59c-2.89-.65-6.44.61-7.13,2.82-.57,1.8-.2,4.82-.2,7.11A1.31,1.31,0,0,1,53.93,70.26Z"/><path class="cls-3" d="M64.83,62.7s-8.1,3.79-5.2,5.19S64.83,62.7,64.83,62.7Z"/><line class="cls-4" x1="14.63" y1="49.84" x2="76.59" y2="49.84"/></svg>