<svg id="Layer_1" data-name="Layer 1" xmlns="http://www.w3.org/2000/svg" viewBox="0 0 105 110"><defs><style>.cls-1{fill:#00727d;}</style></defs><title>nmb-BillPay 105x110</title><path class="cls-1" d="M95.83,55.34v-.07s0-.06,0-.08a.5.5,0,0,0,0-.12.13.13,0,0,1,0-.06l0-.08,0-.11s0,0,0-.06l-.05-.06a.41.41,0,0,0-.07-.11.21.21,0,0,0,0-.06h0l0,0-.09-.09s0,0,0,0l0,0h0L78.77,40.54V7.62A1.37,1.37,0,0,0,77.4,6.25H29.63a1.37,1.37,0,0,0-1.37,1.37V40.54L11.71,54.33h0l0,0s0,0,0,0l-.09.09-.05,0h0a.21.21,0,0,0,0,.06.41.41,0,0,0-.07.11l-.05.06,0,.06-.05.11,0,.08a.13.13,0,0,1,0,.06.5.5,0,0,0,0,.12s0,.05,0,.08v47.9a1.36,1.36,0,0,0,1.36,1.37H94.47a1.36,1.36,0,0,0,1.36-1.37V55.34Zm-3.49.06L78.77,66.7V44.09ZM76,9V69l-4.1,3.41V62.22a1.37,1.37,0,0,0-2.73,0V74.66L53.52,87.75,37.82,74.66V62.22a1.37,1.37,0,0,0-2.73,0V72.39L31,69V9ZM28.26,66.7,14.69,55.4,28.26,44.09ZM13.93,101.81V58.31L52.64,90.57a1.36,1.36,0,0,0,1.75,0L93.1,58.31v43.5Z"/><path class="cls-1" d="M36.45,49.94a1.37,1.37,0,0,0,1.37-1.37v-26a8.23,8.23,0,0,0,6.71-6.71h18a8.23,8.23,0,0,0,6.71,6.71V48.57a1.37,1.37,0,1,0,2.73,0V21.27a1.37,1.37,0,0,0-1.36-1.37,5.47,5.47,0,0,1-5.46-5.46,1.36,1.36,0,0,0-1.37-1.36H43.28a1.36,1.36,0,0,0-1.37,1.36,5.47,5.47,0,0,1-5.46,5.46,1.37,1.37,0,0,0-1.36,1.37v27.3A1.37,1.37,0,0,0,36.45,49.94Z"/><path class="cls-1" d="M36.45,56.76h5.63a5.31,5.31,0,0,0,5.29,4.1c3.59,0,5.52-2.46,7.22-4.62,1.51-1.92,2.81-3.57,5.07-3.57a2.73,2.73,0,1,1,0,5.46,1.37,1.37,0,1,0,0,2.73A5.3,5.3,0,0,0,65,56.76h5.63a1.37,1.37,0,0,0,0-2.73H65a5.29,5.29,0,0,0-5.29-4.09c-3.59,0-5.52,2.45-7.22,4.61-1.51,1.92-2.81,3.58-5.07,3.58a2.73,2.73,0,1,1,0-5.46,1.37,1.37,0,1,0,0-2.73A5.3,5.3,0,0,0,42.08,54H36.45a1.37,1.37,0,0,0,0,2.73Z"/></svg>