<svg id="Layer_1" data-name="Layer 1" xmlns="http://www.w3.org/2000/svg" viewBox="0 0 105 110"><defs><style>.cls-1{fill:#00727d;}</style></defs><title>ABT-PersonToPersonPay-105x110</title><path class="cls-1" d="M43.19,80.31H11.47V15.49H54v1.79a11.55,11.55,0,0,1,1.32-.08H57.9V15.13a8.24,8.24,0,0,0-8.21-8.25l-33.93,0a8.22,8.22,0,0,0-8.2,8.23v65.5a8.23,8.23,0,0,0,8.2,8.25H43.19Zm-17-69.85a1.18,1.18,0,0,1,1.18-1.18H38.09a1.18,1.18,0,0,1,1.18,1.18V12a1.18,1.18,0,0,1-1.18,1.18H27.37A1.18,1.18,0,0,1,26.19,12Z"/><path class="cls-1" d="M66.46,72.3a2,2,0,0,0,1,.33h9.9a2,2,0,1,0,0-3.9H69.14A23.28,23.28,0,0,1,66.46,72.3Zm5.27-31.38H66.25a22.66,22.66,0,0,1,2.94,3.9h2.54a1.95,1.95,0,1,0,0-3.9ZM86.48,58.73a2,2,0,1,0,0-3.91H77.39a2,2,0,0,0,0,3.91Zm2.76-37.61H55.31a8.22,8.22,0,0,0-8.21,8.22V33.7a24.3,24.3,0,0,1,3.91,0v-4H93.54V94.51H51V79.87a23.2,23.2,0,0,1-3.91,0v15a8.24,8.24,0,0,0,8.21,8.25l33.93,0a8.22,8.22,0,0,0,8.2-8.23V29.37A8.23,8.23,0,0,0,89.24,21.12ZM78.81,99.54a1.18,1.18,0,0,1-1.18,1.18H66.91a1.18,1.18,0,0,1-1.18-1.18V98a1.18,1.18,0,0,1,1.18-1.18H77.63A1.18,1.18,0,0,1,78.81,98ZM63.39,70.82a19.91,19.91,0,0,0,.22-27.95l-.15-.16a19.94,19.94,0,1,0-.07,28.11ZM38,68.1h0A16,16,0,0,1,60.5,45.28a1.59,1.59,0,0,0,.13.13A16,16,0,0,1,49.3,72.77h0A15.88,15.88,0,0,1,38,68.1Zm13-1.55a6.11,6.11,0,0,0,2.68-1.21,4.75,4.75,0,0,0,1.73-3.86,5.05,5.05,0,0,0-1-3.19,10,10,0,0,0-3.51-2.56l-1.1-.51a10.17,10.17,0,0,1-2.64-1.66,2.28,2.28,0,0,1,.12-3.41,3.17,3.17,0,0,1,2.11-.71,3,3,0,0,1,2.07.67,2.47,2.47,0,0,1,.83,1.83h2.94a5.15,5.15,0,0,0-1.67-3.65A5.2,5.2,0,0,0,51,47.11V44.48H47.66v2.71a5.81,5.81,0,0,0-2.52,1.17A4.47,4.47,0,0,0,43.45,52a4.77,4.77,0,0,0,.93,2.91,7.36,7.36,0,0,0,2.81,2.16l1.36.66a11.91,11.91,0,0,1,3.2,2,2.51,2.51,0,0,1,.65,1.77,2.55,2.55,0,0,1-.95,2A3.6,3.6,0,0,1,49,64.3,2.7,2.7,0,0,1,47,63.51a3.1,3.1,0,0,1-.73-2.21v-.09h-3a5.79,5.79,0,0,0,1.56,4.14,5.06,5.06,0,0,0,2.84,1.32v2.4H51Z"/></svg>