<svg id="Layer_1" data-name="Layer 1" xmlns="http://www.w3.org/2000/svg" viewBox="0 0 105 110"><defs><style>.cls-1{fill:#00727d;}</style></defs><title>nmb-DW 105x110</title><path class="cls-1" d="M70.76,17.94l-37.68,0A9.14,9.14,0,0,0,24,27.05v4.86a26.2,26.2,0,0,1,4.34,0V27.45H75.54v72H28.31V31.27a25.16,25.16,0,0,1-4.34,0V99.84A9.15,9.15,0,0,0,33.09,109l37.67,0a9.14,9.14,0,0,0,9.12-9.14V27.1A9.15,9.15,0,0,0,70.76,17.94ZM59.18,105a1.31,1.31,0,0,1-1.31,1.3H46a1.31,1.31,0,0,1-1.31-1.3v-1.7A1.31,1.31,0,0,1,46,102h11.9a1.31,1.31,0,0,1,1.31,1.3Z"/><path class="cls-1" d="M67.32,34.39H36.52A3.63,3.63,0,0,0,32.9,38V55.23a3.62,3.62,0,0,0,3.62,3.62h30.8A3.63,3.63,0,0,0,71,55.23V38A3.64,3.64,0,0,0,67.32,34.39Zm2,20.84a2,2,0,0,1-2,2H36.52a2,2,0,0,1-2-2V44.68h34.7Zm0-15.48H34.57V38a2,2,0,0,1,2-2h30.8a2,2,0,0,1,2,2Z"/><path class="cls-1" d="M59.21,48.08h4.28A1.11,1.11,0,0,1,64.6,49.2v3a1.12,1.12,0,0,1-1.12,1.12H59.21a1.12,1.12,0,0,1-1.12-1.12v-3A1.12,1.12,0,0,1,59.21,48.08Z"/><path class="cls-1" d="M80.94,14.07a12.16,12.16,0,0,0-10.42-1.82,1.6,1.6,0,0,0-1.2,2,1.79,1.79,0,0,0,2.16,1.35A8.62,8.62,0,0,1,79,16.92a8.87,8.87,0,0,1,3.22,7.14,1.62,1.62,0,0,0,1.47,1.63h.2a1.76,1.76,0,0,0,1.78-1.78A12.17,12.17,0,0,0,80.94,14.07Z"/><path class="cls-1" d="M84.39,9.21A14.69,14.69,0,0,0,71.82,7a1.59,1.59,0,0,0-1.18,1.1,1.84,1.84,0,0,0,.45,1.73,1.75,1.75,0,0,0,1.7.49,11.19,11.19,0,0,1,9.64,1.78,11.32,11.32,0,0,1,4.36,9.28A1.59,1.59,0,0,0,88.26,23h.2a1.75,1.75,0,0,0,1.78-1.77A14.78,14.78,0,0,0,84.39,9.21Z"/><path class="cls-1" d="M95,18.56A17.14,17.14,0,0,0,88,4.65,17,17,0,0,0,73.31,1.77h0a1.6,1.6,0,0,0-1.19,2,1.77,1.77,0,0,0,2.16,1.34A13.6,13.6,0,0,1,86,7.5a13.78,13.78,0,0,1,5.52,11.2A1.61,1.61,0,0,0,93,20.33h.19A1.75,1.75,0,0,0,95,18.56ZM73.53,2.68Z"/></svg>