<svg id="Layer_1" data-name="Layer 1" xmlns="http://www.w3.org/2000/svg" viewBox="0 0 105 110"><defs><style>.cls-1{fill:#00727d;}</style></defs><title>ABT-SavvyManagement-105x110</title><rect class="cls-1" x="3.11" y="93.11" width="80.59" height="5.19"/><path class="cls-1" d="M76.25,48.69V27.25H59.51v28.3a19.12,19.12,0,0,0,2.28.14A18.45,18.45,0,0,0,76.25,48.69Z"/><path class="cls-1" d="M61.79,66.69q-1.15,0-2.28-.09V88H76.25V62.88A29.58,29.58,0,0,1,61.79,66.69Z"/><rect class="cls-1" x="11.97" y="63.56" width="16.74" height="24.45"/><path class="cls-1" d="M44.16,31.74A18.49,18.49,0,0,0,52.88,53.4V31.74Z"/><path class="cls-1" d="M36.15,51.71V88H52.88V65.31A29.57,29.57,0,0,1,36.15,51.71Z"/><path class="cls-1" d="M88.82,55.42l-2,2.25-4-3.58a27,27,0,1,0-4.26,4.24l4.26,3.82-1.79,2,13.38,12,7.79-8.73Zm-27,2.77a21,21,0,1,1,21-21A21,21,0,0,1,61.79,58.19Z"/></svg>