<svg id="Layer_1" data-name="Layer 1" xmlns="http://www.w3.org/2000/svg" viewBox="0 0 105 110"><defs><style>.cls-1{fill:#00727d;}</style></defs><title>ABT-Fraud-105x110</title><path class="cls-1" d="M82.35,41.15c-.81,9.5-2.22,17.09-5,23.64C73.28,74.43,65.7,82.48,52.58,91.62l-3.64,5.07,3.64,6,2.71-1.81c16.41-11,25.39-20.4,30.51-32.51,4.72-11.13,5.93-24.13,6.57-42.64Z"/><path class="cls-1" d="M70.63,16.28C65.75,15.12,61,13,55,9.48L52.58,8.06l-2.2,6.28,2.2,4.31a62.17,62.17,0,0,0,15.93,6.58,49.57,49.57,0,0,0,7,1.13L52.38,62.06,39.55,43.35H28.42L48.69,72.92l3.89,5.68,3.75-5.77,36.31-56-5,.32C82,17.55,76.18,17.6,70.63,16.28Z"/><path class="cls-1" d="M17.54,17.18c6.93.45,12.13.26,17-.9S44.13,13,50.12,9.48l2.46-1.42V18.65a62.26,62.26,0,0,1-15.92,6.58A56.69,56.69,0,0,1,22,26.57c.61,16.82,1.75,28.63,5.81,38.22S39.47,82.48,52.58,91.62v11l-2.71-1.81c-16.4-11-25.39-20.4-30.51-32.51-5-11.88-6.07-25.88-6.69-46.45l-.15-5Z"/></svg>