<svg id="Layer_1" data-name="Layer 1" xmlns="http://www.w3.org/2000/svg" viewBox="0 0 105 110"><defs><style>.cls-1,.cls-2{fill:none;stroke:#00727d;stroke-miterlimit:10;}.cls-1{stroke-width:3px;}.cls-2{stroke-width:3.18px;}.cls-3{fill:#00727d;}</style></defs><title>ABT-MobileBanking-105x110</title><circle class="cls-1" cx="52.22" cy="55.44" r="15.29"/><path class="cls-2" d="M57.21,48.58s-6-3.17-8.48,1.1a3.31,3.31,0,0,0,1.42,4.26c2.85,1.6,7.65,2.6,6.39,6.59C55.45,64,49.9,63.31,47.23,62.2"/><line class="cls-2" x1="52.58" y1="47.73" x2="52.58" y2="44.82"/><line class="cls-2" x1="52.58" y1="63.3" x2="52.58" y2="66.06"/><path class="cls-3" d="M73.25,4.64l-42,0A10.21,10.21,0,0,0,21,14.81v5.42a29,29,0,0,1,4.84-.05V15.25H78.58V95.6H25.86V19.51a29,29,0,0,1-4.84,0V96.05A10.22,10.22,0,0,0,31.2,106.27l42.05,0A10.19,10.19,0,0,0,83.42,96.05V14.86A10.2,10.2,0,0,0,73.25,4.64ZM60.32,101.83a1.46,1.46,0,0,1-1.46,1.46H45.58a1.46,1.46,0,0,1-1.46-1.46V100a1.46,1.46,0,0,1,1.46-1.46H58.86A1.46,1.46,0,0,1,60.32,100Z"/></svg>