<svg id="Layer_1" data-name="Layer 1" xmlns="http://www.w3.org/2000/svg" viewBox="0 0 105 110"><defs><style>.cls-1{fill:#00727d;}</style></defs><title>ABT-Savings-105x110</title><path class="cls-1" d="M75.23,103.83H61.73l-.79-5.45a50.51,50.51,0,0,1-5.47.49v0h-3l-.42,0h-.23l-.79,0c-.57,0-1.13-.06-1.7-.11h-.22c-1.35-.11-2.66-.27-3.91-.46l-3.75,5.57H27.84V92.38a56.77,56.77,0,0,1-26-30.09L1.71,62V48.07H3.62A17.84,17.84,0,0,0,17.34,42,45.53,45.53,0,0,1,25,34.68V21.06h1.92a20.73,20.73,0,0,1,14.62,6,51.09,51.09,0,0,1,12.06-1.43c24,0,43.53,16.43,43.53,36.62,0,10.93-5.7,21.16-15.66,28.14ZM65,99.85h7.81l5.6-12.13.45-.31C88,81.17,93.25,72,93.25,62.29c0-18-17.81-32.64-39.7-32.64a47.51,47.51,0,0,0-12.17,1.57l-1.09.29-.77-.84a17.17,17.17,0,0,0-10.74-5.52V36.79l-.85.59a40.3,40.3,0,0,0-7.72,7.22A21.45,21.45,0,0,1,5.53,52v9.21A52.78,52.78,0,0,0,30.6,89.37l1.06.55v9.93h7.75l4-5.93,1.2.21a47.77,47.77,0,0,0,4.76.62l.23,0,1.57.1.71,0h1.68a48.71,48.71,0,0,0,8.67-.79l1.93-.35Z"/><path class="cls-1" d="M95.16,64.28v-4a6.13,6.13,0,0,0,6-6.25H105A10,10,0,0,1,95.16,64.28Z"/><path class="cls-1" d="M28,56.2a6,6,0,0,1-5.89-6.14h3.82a2.07,2.07,0,1,0,4.13,0h3.83A6,6,0,0,1,28,56.2Z"/><path class="cls-1" d="M55,73.31H52.15a6.08,6.08,0,0,1-4.42-1.9A6.58,6.58,0,0,1,45.9,66.8h3.82a2.58,2.58,0,0,0,.71,1.8,2.39,2.39,0,0,0,1.72.73H55a2.36,2.36,0,0,0,1.72-.74,2.59,2.59,0,0,0,.71-1.79A2.51,2.51,0,0,0,56.76,65,2.33,2.33,0,0,0,55,64.28H52.15a6.13,6.13,0,0,1-4.43-1.91,6.71,6.71,0,0,1,0-9.19,6.09,6.09,0,0,1,4.43-1.91H55a6.08,6.08,0,0,1,4.42,1.9,6.62,6.62,0,0,1,1.83,4.61H57.47A2.59,2.59,0,0,0,56.76,56,2.36,2.36,0,0,0,55,55.25H52.15a2.36,2.36,0,0,0-1.72.74,2.6,2.6,0,0,0,0,3.56,2.37,2.37,0,0,0,1.73.75H55a6.09,6.09,0,0,1,4.42,1.91,6.56,6.56,0,0,1,1.83,4.59,6.66,6.66,0,0,1-1.82,4.61A6.13,6.13,0,0,1,55,73.31Z"/><rect class="cls-1" x="51.68" y="48.63" width="3.83" height="4.63"/><rect class="cls-1" x="51.68" y="71.32" width="3.83" height="4.63"/><path class="cls-1" d="M53.59,21.59A7.73,7.73,0,0,1,46,13.72a7.56,7.56,0,1,1,15.11,0A7.73,7.73,0,0,1,53.59,21.59Z"/></svg>