<svg id="Layer_1" data-name="Layer 1" xmlns="http://www.w3.org/2000/svg" viewBox="0 0 105 110"><defs><style>.cls-1{fill:none;stroke:#00727d;stroke-linecap:round;stroke-linejoin:round;stroke-width:3px;}</style></defs><title>ABT-FinanceTeam-105x110 </title><path class="cls-1" d="M67.75,62.92l-7.83-4.83,1.43-13.71s-2-9.27,3.79-15A12.9,12.9,0,0,1,77.55,25.7,12.88,12.88,0,0,1,90,29.36c5.75,5.75,3.79,15,3.79,15l1.44,13.71-7.84,4.83"/><path class="cls-1" d="M73,35.76c3.13,7.18,15.41,11,15.41,11L86.7,54.35a12,12,0,0,1-.82,2.54,8.93,8.93,0,0,1-16.66,0,11.44,11.44,0,0,1-.83-2.54L66.7,46.79a12.83,12.83,0,0,0,10.08-6.22"/><path class="cls-1" d="M84.69,58.84v9.31H87a15.54,15.54,0,0,1,15.54,15.54v7"/><path class="cls-1" d="M70.4,58.84v9.31H68.14A15.54,15.54,0,0,0,52.6,83.69v7"/><polyline class="cls-1" points="84.69 68.14 77.55 91.52 85.51 79.83 92.3 77.81 88.39 72.19"/><polyline class="cls-1" points="66.7 72.19 62.79 77.81 69.58 79.83 77.55 91.52 70.4 68.14"/><line class="cls-1" x1="92.3" y1="85.51" x2="92.3" y2="90.74"/><line class="cls-1" x1="62.79" y1="85.51" x2="62.79" y2="90.74"/><path class="cls-1" d="M39.59,42.08s.27,6.86-4.47,9.48v1.25a4.43,4.43,0,0,1-2.21,3.84l-4.29,2.48-4.28-2.48a4.43,4.43,0,0,1-2.21-3.84V51.56c-4.74-2.62-4.47-9.48-4.47-9.48"/><path class="cls-1" d="M22.13,52.81a22.12,22.12,0,0,0-3.22,6.59l4.69,4.79,5-4.38,5,4.38,4.69-4.79a22.12,22.12,0,0,0-3.22-6.59"/><path class="cls-1" d="M19.66,57.25,6.93,61.55a6.26,6.26,0,0,0-4.25,5.93V79.33"/><path class="cls-1" d="M37.59,57.25l12.72,4.3a6.26,6.26,0,0,1,4.26,5.93V79.33"/><polyline class="cls-1" points="25.19 62.8 27.25 66.97 24.36 79.06"/><polyline class="cls-1" points="32.06 62.8 30 66.97 32.89 79.06"/><path class="cls-1" d="M39.59,43.88a4.26,4.26,0,0,0,3.7-4.2c.33-3.92-2.75-2.52-2.75-2.52.93-2.22.82-3.6.91-6.15A12.83,12.83,0,1,0,15.8,31a12.54,12.54,0,0,0,.91,6.15s-3.08-1.4-2.75,2.52a4.26,4.26,0,0,0,3.7,4.2"/><path class="cls-1" d="M22.09,28.7s3.37,8.65,14.59,8.65"/></svg>