<svg id="Layer_1" data-name="Layer 1" xmlns="http://www.w3.org/2000/svg" viewBox="0 0 105 110"><defs><style>.cls-1{fill:#00727d;}</style></defs><title>ABT-CreditCard-105x110</title><path class="cls-1" d="M91.89,24.78H12.56a9.35,9.35,0,0,0-9.34,9.35V78.46a9.35,9.35,0,0,0,9.34,9.34H91.89a9.36,9.36,0,0,0,9.34-9.34V34.13A9.36,9.36,0,0,0,91.89,24.78Zm5,53.68a5,5,0,0,1-5,5H12.56a5,5,0,0,1-5-5V51.3H96.91Zm0-39.88H7.53V34.13a5,5,0,0,1,5-5H91.89a5,5,0,0,1,5,5Z"/><path class="cls-1" d="M71,60.06H82a2.87,2.87,0,0,1,2.87,2.87V70.6A2.87,2.87,0,0,1,82,73.47H71a2.88,2.88,0,0,1-2.88-2.88V62.94A2.87,2.87,0,0,1,71,60.06Z"/></svg>