<svg id="Layer_1" data-name="Layer 1" xmlns="http://www.w3.org/2000/svg" viewBox="0 0 105 110"><defs><style>.cls-1{fill:#00727d;}</style></defs><title>ABT-FreeChecking-105x110</title><g id="Group_10" data-name="Group 10"><path class="cls-1" d="M32.52,93a1.32,1.32,0,0,1-.94-2.19l2.65-3-.26-.7c-.57-2.6.71-6.35,2-9.32l.31-.62H6.08a1.66,1.66,0,0,1-1.67-1.65V37.89a1.66,1.66,0,0,1,1.67-1.65H69.57l4.6-5.56,6.5-6.85,1.67-1.65c3.63-3.09,8.32-4.41,11.86-2.72l1.16.78.16,0,.32.29c2.56,2.27,3,5.86,2,9.4l-.27.75h.15c3.4.9,5,6.1,2.77,8.78L86.61,56.16l.1.54V75.54a1.65,1.65,0,0,1-1.66,1.65H58.31l-.26,0-1.3,1.44a49.1,49.1,0,0,1-10.52,8.29c-2.75,1.65-6.21,3.34-8.81,3.18a4.26,4.26,0,0,1-1.27-.29l-.07,0-2.52,2.84A1.3,1.3,0,0,1,32.52,93Zm5.26-5.61L36.5,86.18v.13l.35.82.36.21.53.08Zm3.06-.78,1.73-.75,2.31-1.27A51.5,51.5,0,0,0,54,77.73l-.53-1.32a16,16,0,0,0-1-1.82l-1.14-1.44L51,72.86l-1.31-1.24a18.17,18.17,0,0,0-1.63-1.15l-2.5-1.11L44.18,69a51.94,51.94,0,0,0-5.77,9.89c-.5,1.16-.91,2.23-1.21,3.18l-.25.86Zm-.23-4.91-.48-.08a1.36,1.36,0,0,1-.73-1.74,38.67,38.67,0,0,1,2.87-5.65,1.33,1.33,0,0,1,2.25,1.41,35.12,35.12,0,0,0-2.67,5.23,1.28,1.28,0,0,1-1.22.83Zm15.33-6.19L76.36,52.45,75,49.56a12.47,12.47,0,0,0-4.09-4.29L68.17,44l-1.53-.38L46.14,66.76l.33.08a16,16,0,0,1,9.33,8.37Zm-18-1.61,1.46-2.55a33.78,33.78,0,0,1,3.57-5L66.71,39.54h-59V73.85H37.52Zm45.47-.08V60l-3.92,4.7a1.32,1.32,0,0,1-1.25.45L77.81,65c-2.52-1.45-2.51-4.17-1.06-7a33.87,33.87,0,0,1,6.31-7.8l.37-.33,0-.2V48.57L82,50.14,61,73.85ZM16.71,68.33A1.31,1.31,0,0,1,15.38,67c0-2.31-.42-5.61.33-8C17,55,22.33,53.56,26,54.39A5.43,5.43,0,0,1,30.34,58a6.14,6.14,0,0,1,.14.78l.07,0a3.33,3.33,0,0,1,.6.16,1.39,1.39,0,0,1,.52.25,5.4,5.4,0,0,1,2.07,3.14c0,.12.07.29.11.45l.07.37.55-.12c.42-.08.83-.13,1.18-.17,1.68-.16,3.52-.12,4.53-.12a1.32,1.32,0,1,1,0,2.64,40.42,40.42,0,0,0-4.25.12,9.16,9.16,0,0,0-1.88.37c-.26.13-.42.21-.53.25l-.05.08a2.64,2.64,0,0,1-.31.37A1.32,1.32,0,0,1,31,65.07l.06-.13.2-.24a3,3,0,0,0-.11-1.61,3.58,3.58,0,0,0-.81-1.57l-.27-.08-.32.82A14.46,14.46,0,0,1,28,65.15a5.92,5.92,0,0,1-3.68,2.52,4.71,4.71,0,0,1-3-.5,2.81,2.81,0,0,1-1.36-2.31,4.92,4.92,0,0,1,2.77-4.2,16.09,16.09,0,0,1,4.84-1.82l.26,0,0-.08A2.73,2.73,0,0,0,25.44,57c-2.92-.66-6.5.61-7.2,2.84C17.66,61.65,18,64.7,18,67A1.31,1.31,0,0,1,16.71,68.33Zm15.54-2.64.12-.21-1-.66.87.87ZM23.46,65H24c.58-.09,1.17-.58,1.89-1.49A15.25,15.25,0,0,0,27,61.85l.1-.2-.83.28A20.93,20.93,0,0,0,24,63a2.42,2.42,0,0,0-1.4,1.77.15.15,0,0,0,.09.16A1.93,1.93,0,0,0,23.46,65Zm55-3.22,20-24c1.22-1.44-.21-4.78-2-4.54h-.1L96,34l.45.16a3.53,3.53,0,0,1,.88.74,3,3,0,0,1-.21,3.59l-.82,1L88.1,49.19l-.12.13c-4.85,4.33-7.65,7.62-8.88,10a7.08,7.08,0,0,0-.64,1.57ZM14.72,50.35a1.69,1.69,0,0,1-1.66-1.69A1.65,1.65,0,0,1,14.72,47H49.35A1.65,1.65,0,0,1,51,48.66a1.69,1.69,0,0,1-1.66,1.69Zm63.61-.09.9-1.07L77.9,46.35a11.88,11.88,0,0,0-4.09-4.29L71,40.78l-1.53-.41-.9,1,.41.08a14.94,14.94,0,0,1,9,8.08Zm2.88-3.21,5.13-5.61c2.07-2.35,4.1-4.7,6.1-7.14C95,31.42,96,28.16,95.62,25.69l-.75-2.19-.8-.95-2.25-1c-2.65-.49-6.28.74-9.26,4.08-2.23,2.23-4.35,4.5-6.4,6.81l-4.42,5.32,0,.16-.07.33.19,0a14.92,14.92,0,0,1,9,8Zm5.5-.33,7.55-8.91,0,0a3.6,3.6,0,0,0,.76-1l.06-.21-.11,0-.55,0-.4,0-5.74,6.72L86.65,45l.06.33Zm-9.87-9.08a1.19,1.19,0,0,1-1-.33,1.31,1.31,0,0,1-.11-1.85l5.39-6.06A1.29,1.29,0,0,1,83,29.27a1.31,1.31,0,0,1,.11,1.86l-5.39,6.1A1.3,1.3,0,0,1,76.84,37.64Zm7.89-8.82a1.36,1.36,0,0,1-.94-2.23l1-1.15a1.32,1.32,0,0,1,1.87-.08,1.3,1.3,0,0,1,.1,1.85l-1,1.16A1.48,1.48,0,0,1,84.73,28.82Z"/></g></svg>