<svg id="Layer_1" data-name="Layer 1" xmlns="http://www.w3.org/2000/svg" viewBox="0 0 105 110"><defs><style>.cls-1{fill:#00727d;}.cls-2,.cls-3,.cls-4{fill:none;stroke:#00727d;}.cls-2{stroke-miterlimit:10;}.cls-2,.cls-3{stroke-width:1.25px;}.cls-3,.cls-4{stroke-linecap:round;stroke-linejoin:round;}.cls-4{stroke-width:3.5px;}</style></defs><title>ABT-MoneyMarket105x110</title><path class="cls-1" d="M13.93,73.71a.13.13,0,0,1,0,.08,2.31,2.31,0,0,1-.73.1,1.89,1.89,0,0,1-.74-.06.27.27,0,0,1,0-.1c-.92,0-1.72,0-2.36-.12-.1,0-.15,0-.12-.06l.31-.19a.68.68,0,0,1,.34,0,21.39,21.39,0,0,0,2.17.12c1.33,0,1.95-.14,1.95-.31s-.52-.28-1.87-.39c-1.81-.13-2.66-.34-2.66-.59s.83-.51,2.27-.59a.21.21,0,0,1,0-.1,2.13,2.13,0,0,1,.69-.08,2.85,2.85,0,0,1,.71,0,.65.65,0,0,1,0,.1c.82,0,1.54.06,2,.11.1,0,.14,0,.08.07l-.28.17a.73.73,0,0,1-.32,0,16.21,16.21,0,0,0-1.83-.09c-1.08,0-1.69.13-1.69.28s.61.25,1.92.36c1.74.14,2.64.32,2.64.63S15.58,73.64,13.93,73.71Z"/><path class="cls-2" d="M2.35,82.54V72.92S2.2,71.41,7,70.63s11.63-.62,14.72.56c0,0,2.2.66,2.3,1.66s0,9.65,0,9.65,0,1-1.81,1.58c-3.85,1.31-12.4,1.86-18.14,0C3.73,83.92,2.47,83.42,2.35,82.54Z"/><path class="cls-3" d="M2.37,72.92a5.29,5.29,0,0,0,2.36,1.25,32.39,32.39,0,0,0,16.11.06,11.48,11.48,0,0,0,1.37-.44"/><path class="cls-3" d="M2.37,75.44a5.29,5.29,0,0,0,2.36,1.25,32.39,32.39,0,0,0,16.11.06,12.47,12.47,0,0,0,1.35-.43"/><path class="cls-3" d="M2.37,78a5.29,5.29,0,0,0,2.36,1.25,32.39,32.39,0,0,0,16.11.06,12.47,12.47,0,0,0,1.35-.43"/><path class="cls-3" d="M2.37,80.48a5.29,5.29,0,0,0,2.36,1.25,32.39,32.39,0,0,0,16.11.06,12.47,12.47,0,0,0,1.35-.43"/><path class="cls-1" d="M39.72,68.36a.1.1,0,0,1,0,.07,2,2,0,0,1-.74.11,2.2,2.2,0,0,1-.74-.06.45.45,0,0,1,0-.11c-.92,0-1.73-.05-2.36-.11q-.17,0-.12-.06L36,68a.64.64,0,0,1,.33,0,21.57,21.57,0,0,0,2.17.12c1.33,0,2-.14,2-.32s-.52-.28-1.87-.38c-1.81-.14-2.67-.35-2.67-.6s.84-.5,2.28-.58a.19.19,0,0,1,0-.1,2,2,0,0,1,.68-.09,2.66,2.66,0,0,1,.71.06.94.94,0,0,1,0,.1c.81,0,1.53,0,2,.11.1,0,.15,0,.08.07l-.28.17a.67.67,0,0,1-.31,0,15.91,15.91,0,0,0-1.83-.1c-1.09,0-1.69.13-1.69.29s.6.25,1.91.36c1.75.13,2.65.32,2.65.63S41.37,68.28,39.72,68.36Z"/><path class="cls-2" d="M28.14,82.54v-15s-.16-1.51,4.62-2.3,11.64-.62,14.73.57c0,0,2.2.65,2.29,1.65s0,15,0,15,0,1-1.8,1.58c-3.85,1.31-12.4,1.86-18.15,0C29.52,83.92,28.26,83.42,28.14,82.54Z"/><path class="cls-3" d="M28.16,67.57a5.21,5.21,0,0,0,2.36,1.25,32.51,32.51,0,0,0,16.11.06c.46-.13.92-.27,1.37-.44"/><path class="cls-3" d="M28.16,70.09a5.21,5.21,0,0,0,2.36,1.25,32.51,32.51,0,0,0,16.11.06c.45-.13.9-.26,1.34-.43"/><path class="cls-3" d="M28.15,80.16a5.21,5.21,0,0,0,2.36,1.25,32.51,32.51,0,0,0,16.11.06c.45-.13.9-.26,1.34-.43"/><path class="cls-3" d="M28.16,72.61a5.21,5.21,0,0,0,2.36,1.25,32.51,32.51,0,0,0,16.11.06c.45-.13.9-.26,1.34-.43"/><path class="cls-3" d="M28.16,75.13a5.21,5.21,0,0,0,2.36,1.25,32.51,32.51,0,0,0,16.11.06c.45-.13.9-.26,1.34-.43"/><path class="cls-3" d="M28.16,77.62a5.21,5.21,0,0,0,2.36,1.25,32.51,32.51,0,0,0,16.11.06c.45-.13.9-.26,1.34-.43"/><path class="cls-1" d="M65.5,63.3a.08.08,0,0,1,0,.08,2.31,2.31,0,0,1-.73.1,1.89,1.89,0,0,1-.74-.06l0-.1c-.91,0-1.72,0-2.36-.12-.1,0-.15,0-.11-.06l.31-.19a.62.62,0,0,1,.33,0,21.57,21.57,0,0,0,2.17.12c1.33,0,2-.14,2-.31s-.52-.28-1.88-.39c-1.81-.13-2.66-.34-2.66-.59s.84-.51,2.28-.59a.3.3,0,0,1,0-.1,2.17,2.17,0,0,1,.69-.08,2.8,2.8,0,0,1,.71.05.65.65,0,0,1,0,.1c.82,0,1.54.06,2,.11.1,0,.14,0,.08.07l-.28.17a.7.7,0,0,1-.32,0,16.21,16.21,0,0,0-1.83-.09c-1.08,0-1.68.13-1.68.28s.6.25,1.91.36c1.75.14,2.64.32,2.64.63S67.15,63.23,65.5,63.3Z"/><path class="cls-2" d="M53.93,82.54v-20s-.16-1.51,4.62-2.29,11.63-.62,14.73.56c0,0,2.2.66,2.29,1.66s0,20.06,0,20.06,0,1-1.8,1.58c-3.85,1.31-12.4,1.86-18.15,0C55.31,83.92,54,83.42,53.93,82.54Z"/><path class="cls-3" d="M54,62.51a5.14,5.14,0,0,0,2.36,1.25,32.38,32.38,0,0,0,16.11.06,10.78,10.78,0,0,0,1.36-.44"/><path class="cls-3" d="M53.94,80.4a5.2,5.2,0,0,0,2.35,1.26,32.55,32.55,0,0,0,16.12.06c.45-.13.9-.27,1.34-.43"/><path class="cls-3" d="M53.94,77.82a5.2,5.2,0,0,0,2.35,1.26,32.55,32.55,0,0,0,16.12.06c.45-.13.9-.27,1.34-.43"/><path class="cls-3" d="M54,65a5.14,5.14,0,0,0,2.36,1.25,32.38,32.38,0,0,0,16.11.06,13,13,0,0,0,1.34-.43"/><path class="cls-3" d="M54,67.55a5.14,5.14,0,0,0,2.36,1.25,32.38,32.38,0,0,0,16.11.06,13,13,0,0,0,1.34-.43"/><path class="cls-3" d="M54,70.07a5.14,5.14,0,0,0,2.36,1.25,32.38,32.38,0,0,0,16.11.06A13,13,0,0,0,73.76,71"/><path class="cls-3" d="M54,72.56a5.14,5.14,0,0,0,2.36,1.25,32.38,32.38,0,0,0,16.11.06,13,13,0,0,0,1.34-.43"/><path class="cls-3" d="M54,75a5.14,5.14,0,0,0,2.36,1.25,32.5,32.5,0,0,0,16.11.06c.45-.13.9-.26,1.34-.43"/><path class="cls-1" d="M91.28,58.64a.13.13,0,0,1,0,.08,2.31,2.31,0,0,1-.73.1,1.89,1.89,0,0,1-.74-.06.27.27,0,0,1,0-.1c-.92,0-1.72,0-2.36-.12-.1,0-.15,0-.11-.06l.3-.19a.81.81,0,0,1,.34,0,18.83,18.83,0,0,0,2.17.12c1.33,0,2-.14,2-.31s-.52-.28-1.87-.39c-1.81-.13-2.66-.34-2.66-.59s.83-.5,2.27-.58a.24.24,0,0,1,0-.11,2.46,2.46,0,0,1,.69-.08,2.32,2.32,0,0,1,.71.06.43.43,0,0,1,0,.1c.82,0,1.54.05,2,.1.1,0,.14,0,.08.08l-.28.17a.63.63,0,0,1-.32,0c-.42,0-1-.09-1.83-.09-1.08,0-1.69.13-1.69.29s.61.25,1.92.35c1.75.14,2.64.32,2.64.64S92.93,58.57,91.28,58.64Z"/><path class="cls-2" d="M79.7,82.54V57.85s-.15-1.5,4.63-2.29,11.63-.62,14.72.56c0,0,2.2.66,2.3,1.66s0,24.72,0,24.72,0,1-1.8,1.58c-3.86,1.31-12.41,1.86-18.15,0C81.08,83.92,79.82,83.42,79.7,82.54Z"/><path class="cls-3" d="M79.73,57.85a5.2,5.2,0,0,0,2.35,1.26,32.51,32.51,0,0,0,16.11.06c.47-.13.92-.27,1.37-.44"/><path class="cls-3" d="M79.73,60.37a5.2,5.2,0,0,0,2.35,1.26,32.51,32.51,0,0,0,16.11.06c.46-.13.91-.27,1.35-.43"/><path class="cls-3" d="M79.73,62.89a5.2,5.2,0,0,0,2.35,1.26,32.51,32.51,0,0,0,16.11.06c.46-.13.91-.27,1.35-.43"/><path class="cls-3" d="M79.73,65.41a5.2,5.2,0,0,0,2.35,1.26,32.51,32.51,0,0,0,16.11.06c.46-.13.91-.27,1.35-.43"/><path class="cls-3" d="M79.73,67.9a5.13,5.13,0,0,0,2.35,1.25,32.37,32.37,0,0,0,16.11.07c.46-.13.91-.27,1.35-.44"/><path class="cls-3" d="M79.73,70.38a5.13,5.13,0,0,0,2.35,1.25,32.39,32.39,0,0,0,16.11.06,12.47,12.47,0,0,0,1.35-.43"/><path class="cls-3" d="M79.72,72.77A5.21,5.21,0,0,0,82.08,74a32.39,32.39,0,0,0,16.11.06,12.47,12.47,0,0,0,1.35-.43"/><path class="cls-3" d="M79.72,75.35a5.21,5.21,0,0,0,2.36,1.25,32.39,32.39,0,0,0,16.11.06,12.47,12.47,0,0,0,1.35-.43"/><path class="cls-3" d="M79.72,77.93a5.21,5.21,0,0,0,2.36,1.25,32.39,32.39,0,0,0,16.11.06,12.47,12.47,0,0,0,1.35-.43"/><path class="cls-3" d="M79.72,80.51a5.21,5.21,0,0,0,2.36,1.25,32.39,32.39,0,0,0,16.11.06,12.47,12.47,0,0,0,1.35-.43"/><path class="cls-4" d="M12,61.68c1.43-.87,15.11-13.56,15.11-13.56l11,8.81L57.24,41.57l8.38,8.14L95,22.56"/><polyline class="cls-4" points="92.11 33.26 94.98 22.56 84.28 25.43"/></svg>