<svg id="Layer_1" data-name="Layer 1" xmlns="http://www.w3.org/2000/svg" viewBox="0 0 105 110"><defs><style>.cls-1,.cls-2{fill:none;stroke:#00727d;stroke-miterlimit:10;}.cls-1{stroke-width:3px;}.cls-2{stroke-width:3.18px;}.cls-3{fill:#00727d;fill-rule:evenodd;}</style></defs><title>ABT-OnlineBanking-105x110</title><circle class="cls-1" cx="52.5" cy="55.84" r="12.44"/><path class="cls-2" d="M56.56,50.26s-4.85-2.57-6.9.9a2.69,2.69,0,0,0,1.16,3.47C53.13,55.93,57,56.74,56,60c-.88,2.83-5.4,2.26-7.57,1.36"/><line class="cls-2" x1="52.79" y1="49.57" x2="52.79" y2="47.2"/><line class="cls-2" x1="52.79" y1="62.24" x2="52.79" y2="64.48"/><path class="cls-3" d="M5,89h95a1.35,1.35,0,0,0,1-.4h0a1.35,1.35,0,0,0,.39-1V85.71A1.35,1.35,0,0,0,100,84.35H5a1.35,1.35,0,0,0-1,.4l0,0a1.33,1.33,0,0,0-.36.93v1.93A1.35,1.35,0,0,0,5,89ZM12.1,25.85H92.9a3.11,3.11,0,0,1,2.23.93A3.15,3.15,0,0,1,96.06,29V82.55H100a3.16,3.16,0,0,1,3.16,3.16v1.93a3.12,3.12,0,0,1-.93,2.24h0a3.14,3.14,0,0,1-2.23.92H5a3.14,3.14,0,0,1-2.23-.92h0a3.11,3.11,0,0,1-.93-2.23V85.71a3.15,3.15,0,0,1,.87-2.18l.06-.06A3.14,3.14,0,0,1,5,82.55H8.94V29a3.15,3.15,0,0,1,.93-2.23h0a3.11,3.11,0,0,1,2.23-.93Zm80.8,1.81H12.1a1.39,1.39,0,0,0-1,.39h0a1.39,1.39,0,0,0-.39,1V82.55h83.5V29a1.33,1.33,0,0,0-1.35-1.35ZM37.3,87.42a.9.9,0,1,1,0-1.8H67.1a.9.9,0,0,1,0,1.8ZM14.41,30.19a.91.91,0,0,0-.91.9v48a.9.9,0,0,0,.91.9H90.59a.9.9,0,0,0,.9-.9v-48a.9.9,0,0,0-.9-.9ZM89.69,32H15.31V78.21H89.69Z"/></svg>