<svg id="Layer_1" data-name="Layer 1" xmlns="http://www.w3.org/2000/svg" viewBox="0 0 105 110"><defs><style>.cls-1{fill:#00727d;stroke:#00727d;stroke-miterlimit:10;}</style></defs><title>ABT-Loans-105x110</title><path class="cls-1" d="M56.51,98.16a3.6,3.6,0,0,1-1-.13l-.86-.24a5.78,5.78,0,0,1-1.88-.92L34.54,83.3a2.84,2.84,0,0,1-1.07-3l.17-.71A2.39,2.39,0,0,1,36,77.81a1.81,1.81,0,0,1,1,.27l17,10.53,6-3.28a.55.55,0,1,1,.53,1l-6.24,3.43a.56.56,0,0,1-.56,0L36.33,79a.69.69,0,0,0-.37-.1,1.28,1.28,0,0,0-1.24,1l-.18.7a1.75,1.75,0,0,0,.66,1.83L53.46,96a4.57,4.57,0,0,0,1.52.74l.86.24a2.56,2.56,0,0,0,1.45,0l18.11-6a3.87,3.87,0,0,1,2.93.21L84.09,94a.55.55,0,0,1,.25.74.54.54,0,0,1-.74.25l-5.77-2.82A2.73,2.73,0,0,0,75.75,92L57.64,98A3.61,3.61,0,0,1,56.51,98.16Z"/><path class="cls-1" d="M60.17,86.37,49.74,86.2A2.46,2.46,0,0,1,47.33,84l-.1-1.09a2.25,2.25,0,0,1,2-2.42l20-2.53a4.1,4.1,0,0,1,1.77.18l11.63,4a.56.56,0,0,1-.36,1l-11.63-4A2.86,2.86,0,0,0,69.3,79l-20,2.53a1.14,1.14,0,0,0-1,1.23l.09,1.08a1.36,1.36,0,0,0,1.33,1.24l10.4.17,4.16-.14a.55.55,0,0,1,0,1.1Z"/><path class="cls-1" d="M50.08,81.44a.51.51,0,0,1-.2,0l-7.76-3.08a1.46,1.46,0,0,0-.9,0A1.83,1.83,0,0,0,40,80.05v.25a.56.56,0,0,1-1.11,0v-.25a2.94,2.94,0,0,1,2-2.77,2.55,2.55,0,0,1,1.66,0l7.78,3.08a.56.56,0,0,1,.31.72A.55.55,0,0,1,50.08,81.44Z"/><path class="cls-1" d="M95.48,99.94h-11a.56.56,0,0,1-.55-.49L81.38,79a.55.55,0,0,1,.14-.44.52.52,0,0,1,.41-.18H93a.55.55,0,0,1,.55.48L96,99.32a.55.55,0,0,1-.55.62ZM84.94,98.83h9.92L92.47,79.5H82.56Z"/><path class="cls-1" d="M88.27,86.3a2.42,2.42,0,1,1,2.42-2.42A2.43,2.43,0,0,1,88.27,86.3Zm0-3.73a1.31,1.31,0,1,0,1.31,1.31A1.31,1.31,0,0,0,88.27,82.57Z"/><path class="cls-1" d="M95.84,96.77h-.75a.56.56,0,0,1,0-1.11h.75a.56.56,0,0,1,0,1.11Z"/><path class="cls-1" d="M95.84,82.68H93.36a.56.56,0,1,1,0-1.11h2.48a.56.56,0,0,1,0,1.11Z"/><path class="cls-1" d="M53.74,63.2a2.66,2.66,0,1,1,0-5.32H56.8a2.66,2.66,0,0,1,2.66,2.66.56.56,0,0,1-1.11,0A1.55,1.55,0,0,0,56.8,59H53.74a1.55,1.55,0,0,0,0,3.1.56.56,0,0,1,0,1.11Z"/><path class="cls-1" d="M56.8,67.41H53.74a2.66,2.66,0,0,1-2.66-2.66.56.56,0,0,1,1.11,0,1.55,1.55,0,0,0,1.55,1.55H56.8a1.55,1.55,0,1,0,0-3.1H53.74a.56.56,0,1,1,0-1.11H56.8a2.66,2.66,0,1,1,0,5.32Z"/><path class="cls-1" d="M55.27,59a.55.55,0,0,1-.55-.55v-2a.56.56,0,0,1,1.11,0v2A.56.56,0,0,1,55.27,59Z"/><path class="cls-1" d="M55.27,69.37a.55.55,0,0,1-.55-.55v-2a.56.56,0,0,1,1.11,0v2A.56.56,0,0,1,55.27,69.37Z"/><path class="cls-1" d="M55.27,76.2A13.56,13.56,0,1,1,68.83,62.64,13.57,13.57,0,0,1,55.27,76.2Zm0-26A12.45,12.45,0,1,0,67.72,62.64,12.45,12.45,0,0,0,55.27,50.2Z"/><path class="cls-1" d="M29,38.91H13.85L19.5,11.75H34.62ZM15.21,37.8H28.07l5.18-24.94H20.4Z"/><path class="cls-1" d="M24.67,36.51A2.37,2.37,0,1,1,27,34.15,2.36,2.36,0,0,1,24.67,36.51Zm0-3.62a1.26,1.26,0,1,0,1.26,1.26A1.26,1.26,0,0,0,24.67,32.89Z"/><path class="cls-1" d="M70,53.47a3.2,3.2,0,0,1-1.7-.5L68,52.79a3.24,3.24,0,0,1-1.52-2.6l-.31-7.39a2.15,2.15,0,0,0-.53-1.32l-7.18-8.1a2.12,2.12,0,0,0-1.65-.71L46,33a2.11,2.11,0,0,0-1.75,1L43,36.12a2.12,2.12,0,0,0,.34,2.6L46,41.33a3.42,3.42,0,0,1,.87,1.48l.41,1.53a3.22,3.22,0,0,1-.7,3l-.2.23a3.23,3.23,0,0,1-4.74.11L36.3,42.1A3.28,3.28,0,0,1,35.4,40l-.28-5.74a2.11,2.11,0,0,0-1.51-1.92l-3.33-1,.31-1.07,3.34,1a3.21,3.21,0,0,1,2.3,2.93L36.51,40a2.09,2.09,0,0,0,.59,1.37l5.37,5.55a2.05,2.05,0,0,0,1.57.64,2.08,2.08,0,0,0,1.54-.72l.2-.23a2.12,2.12,0,0,0,.46-2l-.41-1.52a2.12,2.12,0,0,0-.57-1l-2.7-2.62a3.21,3.21,0,0,1-.52-4l1.23-2.08A3.21,3.21,0,0,1,46,31.9l10.79-.34a3.21,3.21,0,0,1,2.51,1.09l7.18,8.1a3.2,3.2,0,0,1,.8,2l.32,7.39a2.12,2.12,0,0,0,1,1.71l.29.18a2.12,2.12,0,0,0,2.15.06,2.08,2.08,0,0,0,1.09-1.85V39.71a2.1,2.1,0,0,0-.6-1.48l-13-13.38a2.15,2.15,0,0,0-.83-.53L33.12,15.9l.36-1.05L58,23.27a3.19,3.19,0,0,1,1.27.8l13,13.39a3.18,3.18,0,0,1,.91,2.25V50.24a3.2,3.2,0,0,1-1.66,2.82A3.26,3.26,0,0,1,70,53.47Z"/><path class="cls-1" d="M69.28,26.77,69,25.7l3.83-1a5,5,0,0,0,2.57-1.28c.5-.47.51-.69.51-.71a2.11,2.11,0,0,0-2.11-2.12H47V19.51H73.81A3.23,3.23,0,0,1,77,22.74a2.17,2.17,0,0,1-.85,1.51,6.19,6.19,0,0,1-3.12,1.57Z"/><path class="cls-1" d="M71.09,37.33l-.43-1,2.82-1.19a2.11,2.11,0,0,0,.62-3.5l-6.57-6.13a2.08,2.08,0,0,0-1.34-.56l-7.79-.38.05-1.1,7.79.37a3.24,3.24,0,0,1,2.05.86l6.57,6.13a3.22,3.22,0,0,1-1,5.33Z"/><rect class="cls-1" x="8.89" y="35.4" width="6.13" height="1.11"/><rect class="cls-1" x="8.61" y="14.37" width="10.8" height="1.11"/></svg>