<svg id="Layer_1" data-name="Layer 1" xmlns="http://www.w3.org/2000/svg" viewBox="0 0 105 110"><defs><style>.cls-1{fill:#00727d;}</style></defs><title>ABT-CDs-105x110</title><path class="cls-1" d="M53.59,59.36c8,0,13.37,3.63,19,7.46s11.73,8,20.64,8V70.68c-7.64,0-12.82-3.53-18.31-7.28-5.16-3.51-10.46-7.13-17.94-8A31.74,31.74,0,0,1,59.56,50,25.43,25.43,0,0,0,78,44.39c10-8,10.48-22.2,10.48-22.2s-14-2.79-24.06,5.25c-5.17,4.14-7.67,10-8.82,14.56.25-5.84-.81-14.95-6.68-22.24C39.35,7.88,22.4,7.54,22.4,7.54s-3.1,16.51,6.47,28.39c6.49,8,15.22,10.59,20.68,11.47a77.66,77.66,0,0,1,1.87,7.9c-8.4.58-13.91,4.42-19.24,8.16s-10.3,7.22-18,7.22v4.14c9.05,0,14.83-4,20.42-8S45.24,59.36,53.59,59.36ZM42,29.41c.32-.27,1.45-1.38,1.76-1.64,6.42,6.94,11.58,18.8,11.58,18.8A43.53,43.53,0,0,1,67.11,34.5c.2.28,1.1,1.51,1.32,1.8a52.62,52.62,0,0,0-14.1,16.53A62.67,62.67,0,0,0,42,29.41Z"/><path class="cls-1" d="M50.74,66.69v3C41.68,72,40,84.54,53.57,86.12A6.39,6.39,0,0,1,57,87.34c1.27,1.16.58,4.57-3.33,4.57a4,4,0,0,1-3.58-2H43.81c.6,3.2,3.32,5.8,6.93,6.74v2.72H56.6V96.67c8.13-1.59,11.53-14.23-2.06-16-2.75-.36-3.73-1.12-4.24-1.58-1.11-1-.53-4.63,3.38-4.63,2.15,0,3.9,1.48,3.9,3.3h6.08c0-3.8-3-7-7.06-8.06v-3Z"/></svg>