<svg id="Layer_1" data-name="Layer 1" xmlns="http://www.w3.org/2000/svg" viewBox="0 0 105 110"><defs><style>.cls-1,.cls-2{fill:#00727d;}.cls-2{fill-rule:evenodd;}</style></defs><title>ABT-TreasuryManagement-105x110</title><path class="cls-1" d="M89.73,83.66a6,6,0,1,0,6,6,6,6,0,0,0-6-6Zm-36.14,0a6,6,0,1,0,6,6,6,6,0,0,0-6-6Zm-8.52-2.5A12.07,12.07,0,0,1,50.58,78V67.85H33.22A12.79,12.79,0,0,0,20.68,78.07,12,12,0,1,1,14.59,78,18.82,18.82,0,0,1,33.26,61.82H50.58V54.88a28.39,28.39,0,0,0,6,0v6.94H74A18.84,18.84,0,0,1,92.59,78a12,12,0,1,1-6.09.09A12.81,12.81,0,0,0,73.92,67.85H56.6V78a12.05,12.05,0,1,1-11.53,3.15ZM21.71,85.42a6,6,0,1,0,0,8.52,6,6,0,0,0,0-8.52Z"/><path class="cls-2" d="M53.59,5.35A22.59,22.59,0,1,1,31,27.94,22.6,22.6,0,0,1,53.59,5.35ZM52.27,29.93c-4.39-1.49-7.41-3.57-7.41-7.6,0-3.47,2.2-6.2,6.11-7.21A1.12,1.12,0,0,0,51.71,14v-.75a1.2,1.2,0,0,1,1.13-1.13h1.88a1.2,1.2,0,0,1,1.13,1.13v.37a1.09,1.09,0,0,0,1,1.08,14.2,14.2,0,0,1,4.18.95,1,1,0,0,1,.62,1.24l-.69,2.63a1,1,0,0,1-.54.66,1,1,0,0,1-.84,0,12.36,12.36,0,0,0-4.83-1c-2.67,0-3.53,1.21-3.53,2.37,0,1.33,1.45,2.24,5,3.53C61.05,26.9,63,29.19,63,33c0,3.48-2.21,6.49-6.41,7.48a1,1,0,0,0-.74,1.05v1.13a1.22,1.22,0,0,1-1.13,1.13H52.84a1.21,1.21,0,0,1-1.13-1.13v-.75a1.06,1.06,0,0,0-1-1,18,18,0,0,1-5.26-1.33,1,1,0,0,1-.58-1.21l.71-2.79a1,1,0,0,1,.54-.68,1,1,0,0,1,.87,0,14,14,0,0,0,5.7,1.28c2.38,0,4-1,4-2.58s-1.32-2.57-4.4-3.61Z"/></svg>